<svg width="38" height="38" viewBox="0 0 38 38" fill="none" xmlns="http://www.w3.org/2000/svg">
<rect x="3.16406" y="3.16797" width="31.6667" height="31.6667" rx="2.2619" fill="#CAD3E6"/>
<path fill-rule="evenodd" clip-rule="evenodd" d="M11.7578 14.1581C11.7578 14.8516 12.1243 15.4925 12.7191 15.8393C13.314 16.186 14.0469 16.186 14.6417 15.8393C15.2366 15.4925 15.6031 14.8516 15.6031 14.1581C15.6031 13.4645 15.2366 12.8237 14.6417 12.4769C14.0469 12.1301 13.314 12.1301 12.7191 12.4769C12.1243 12.8237 11.7578 13.4645 11.7578 14.1581H11.7578Z" fill="white"/>
<path fill-rule="evenodd" clip-rule="evenodd" d="M27.9618 24.4231L22.6761 16.091C21.9923 15.0087 20.4214 15.0087 19.7376 16.091L16.069 21.8665L14.9047 20.0378C14.4888 19.3847 13.5555 19.3847 13.1397 20.0378L9.9701 25.0295C9.71136 25.4308 10.0348 25.9346 10.543 25.9346H27.0008C27.8602 25.9439 28.3961 25.1042 27.9618 24.4231Z" fill="white"/>
</svg>
